<?xml version="1.0" encoding="UTF-8" standalone="no"?>
<!-- Created with Inkscape (http://www.inkscape.org/) -->

<svg
   xmlns:dc="http://purl.org/dc/elements/1.1/"
   xmlns:cc="http://creativecommons.org/ns#"
   xmlns:rdf="http://www.w3.org/1999/02/22-rdf-syntax-ns#"
   xmlns:svg="http://www.w3.org/2000/svg"
   xmlns="http://www.w3.org/2000/svg"
   xmlns:xlink="http://www.w3.org/1999/xlink"
   xmlns:sodipodi="http://sodipodi.sourceforge.net/DTD/sodipodi-0.dtd"
   xmlns:inkscape="http://www.inkscape.org/namespaces/inkscape"
   version="1.0"
   width="48"
   height="48"
   id="svg2031"
   inkscape:version="0.48.4 r9939"
   sodipodi:docname="Collopy.svg">
  <metadata
     id="metadata28">
    <rdf:RDF>
      <cc:Work
         rdf:about="">
        <dc:format>image/svg+xml</dc:format>
        <dc:type
           rdf:resource="http://purl.org/dc/dcmitype/StillImage" />
        <dc:title></dc:title>
      </cc:Work>
    </rdf:RDF>
  </metadata>
  <sodipodi:namedview
     pagecolor="#ffffff"
     bordercolor="#666666"
     borderopacity="1"
     objecttolerance="10"
     gridtolerance="10"
     guidetolerance="10"
     inkscape:pageopacity="0"
     inkscape:pageshadow="2"
     inkscape:window-width="1301"
     inkscape:window-height="744"
     id="namedview26"
     showgrid="false"
     inkscape:zoom="1.5723077"
     inkscape:cx="47.248217"
     inkscape:cy="41.79912"
     inkscape:window-x="65"
     inkscape:window-y="24"
     inkscape:window-maximized="1"
     inkscape:current-layer="g3028"
     showguides="true"
     inkscape:guide-bbox="true"
     units="px" />
  <defs
     id="defs2033">
    <linearGradient
       id="linearGradient4671">
      <stop
         style="stop-color:#ffc836;stop-opacity:1"
         offset="0"
         id="stop4673" />
      <stop
         style="stop-color:#ffe873;stop-opacity:1"
         offset="1"
         id="stop4675" />
    </linearGradient>
    <linearGradient
       x1="224.23996"
       y1="144.75717"
       x2="-65.308502"
       y2="144.75717"
       id="linearGradient1874"
       xlink:href="#linearGradient4671"
       gradientUnits="userSpaceOnUse" />
    <linearGradient
       id="linearGradient4689">
      <stop
         style="stop-color:#366a96;stop-opacity:1"
         offset="0"
         id="stop4691" />
      <stop
         style="stop-color:#3679b0;stop-opacity:1"
         offset="1"
         id="stop4693" />
    </linearGradient>
    <linearGradient
       x1="172.94208"
       y1="77.475983"
       x2="26.670298"
       y2="76.313133"
       id="linearGradient1872"
       xlink:href="#linearGradient4689"
       gradientUnits="userSpaceOnUse" />
    <linearGradient
       inkscape:collect="always"
       xlink:href="#linearGradient4689"
       id="linearGradient3012"
       gradientUnits="userSpaceOnUse"
       x1="172.94208"
       y1="77.475983"
       x2="26.670298"
       y2="76.313133"
       gradientTransform="translate(58.843604,-47.650562)" />
    <linearGradient
       inkscape:collect="always"
       xlink:href="#linearGradient4689"
       id="linearGradient3032"
       gradientUnits="userSpaceOnUse"
       gradientTransform="translate(58.843604,-47.650562)"
       x1="172.94208"
       y1="77.475983"
       x2="26.670298"
       y2="76.313133" />
    <linearGradient
       inkscape:collect="always"
       xlink:href="#linearGradient4689"
       id="linearGradient3113"
       gradientUnits="userSpaceOnUse"
       gradientTransform="translate(58.843604,-47.650562)"
       x1="172.94208"
       y1="77.475983"
       x2="26.670298"
       y2="76.313133" />
    <linearGradient
       inkscape:collect="always"
       xlink:href="#linearGradient4689"
       id="linearGradient3143"
       gradientUnits="userSpaceOnUse"
       gradientTransform="translate(58.843604,-47.650562)"
       x1="172.94208"
       y1="77.475983"
       x2="26.670298"
       y2="76.313133" />
  </defs>
  <g
     id="layer1"
     transform="translate(0,-301.99907)">
    <g
       transform="matrix(1.2019234,0,0,1.2019234,31.322894,-666.7117)"
       id="g3028">
      <g
         id="g3139"
         transform="matrix(0.24765716,0,0,0.24765716,-47.238771,803.35723)">
        <path
           sodipodi:nodetypes="csssscsccsccc"
           d="m 231.78569,23.373239 0,20.989178 c 0,13.181701 -10.57006,23.981161 -23.82234,23.981161 l -47.62704,0 c -16.16391,0 -29.78676,13.78166 -29.78676,29.36324 l 0,21.563632 -16.37565,0 c -13.85225,0 -21.916557,-9.98773 -25.304623,-23.963512 -4.570361,-18.77553 -4.376253,-29.96321 0,-47.94467 3.793928,-15.687454 15.916853,-23.963513 29.769103,-23.963513 l 17.87558,0 47.64469,0 c 22.5958,-0.02551 23.04421,-0.02551 47.62704,-0.02552 z"
           style="fill:url(#linearGradient3143);fill-opacity:1"
           id="path1948"
           inkscape:connector-curvature="0" />
        <path
           sodipodi:nodetypes="csssscsccsccc"
           d="m 246.76904,158.95876 0,-21.72465 c 0,-13.30642 -10.73584,-24.67042 -23.72078,-24.67042 l -47.42398,0 c -15.79627,0 -29.65975,-14.105172 -29.65975,-30.824424 l 0,-21.566199 -17.7818,0 c -13.81076,0 -20.31203,10.601567 -23.72079,24.652273 -4.744157,19.51487 -4.954997,34.11018 0,49.3227 4.79687,14.77685 9.92759,24.65229 23.72079,24.65229 l 23.72079,0 47.42398,0 c 22.18096,0.15843 29.43409,0.15843 47.44154,0.15843 z"
           style="fill:#ffd753;fill-opacity:1"
           id="path1950"
           inkscape:connector-curvature="0" />
      </g>
    </g>
  </g>
</svg>
